<svg width="1096" height="1096" viewBox="0 0 1096 1096" fill="none" xmlns="http://www.w3.org/2000/svg">
<path d="M419.351 873.88C420.484 874.104 421.658 874.222 422.863 874.222H426.57V877.817H422.863L422.306 877.81C421.06 877.778 419.839 877.639 418.653 877.404L419.351 873.88ZM441.4 877.817H433.985V874.222H441.4V877.817ZM456.229 877.817H448.814V874.222H456.229V877.817ZM471.058 877.817H463.644V874.222H471.058V877.817ZM485.888 877.817H478.473V874.222H485.888V877.817ZM407.913 866.232C409.227 868.194 410.917 869.884 412.878 871.197L411.878 872.69L410.886 874.173L410.878 874.182C408.526 872.608 406.501 870.583 404.926 868.231L407.913 866.232ZM404.888 856.249C404.888 857.453 405.006 858.627 405.23 859.76L401.704 860.457C401.47 859.272 401.331 858.051 401.3 856.805L401.293 856.249V852.205H404.888V856.249ZM405.23 836.561C405.006 837.694 404.888 838.868 404.888 840.072V844.116H401.293V840.072C401.293 838.632 401.435 837.225 401.704 835.863L405.23 836.561ZM412.878 825.124C410.917 826.437 409.227 828.127 407.913 830.089L404.926 828.089C406.501 825.737 408.526 823.712 410.878 822.138L412.878 825.124ZM426.57 822.099H422.863C421.658 822.099 420.484 822.217 419.351 822.441L418.653 818.916C420.015 818.647 421.422 818.504 422.863 818.504H426.57V822.099ZM441.4 822.099H433.985V818.504H441.4V822.099ZM456.229 822.099H448.814V818.504H456.229V822.099ZM471.058 822.099H463.644V818.504H471.058V822.099ZM485.888 822.099H478.473V818.504H485.888V822.099ZM500.717 822.099H493.302V818.504H500.717V822.099ZM515.546 822.099H508.132V818.504H515.546V822.099ZM530.376 822.099H522.961V818.504H530.376V822.099ZM541.498 818.504C542.938 818.504 544.345 818.647 545.706 818.916L545.401 820.464L537.791 821.73V818.504H541.498ZM419.351 715.714C420.484 715.938 421.658 716.056 422.863 716.056H426.337V719.651H422.863L422.306 719.644C421.06 719.612 419.839 719.473 418.653 719.238L419.351 715.714ZM440.233 719.651H433.284V716.056H440.233V719.651ZM454.129 719.651H447.181V716.056H454.129V719.651ZM468.025 719.651H461.077V716.056H468.025V719.651ZM481.921 719.651H474.973V716.056H481.921V719.651ZM495.817 719.651H488.869V716.056H495.817V719.651ZM509.713 719.651H502.766V716.056H509.713V719.651ZM523.609 719.651H516.661V716.056H523.609V719.651ZM537.505 719.651H530.558V716.056H537.505V719.651ZM551.402 719.651H544.453V716.056H551.402V719.651ZM565.297 719.651H558.349V716.056H565.297V719.651ZM579.194 719.651H572.246V716.056H579.194V719.651ZM593.09 719.651H586.141V716.056H593.09V719.651ZM607.72 719.238C606.359 719.507 604.952 719.651 603.512 719.651H600.038V716.056H603.512C604.716 716.056 605.89 715.938 607.023 715.714L607.72 719.238ZM407.913 708.066C409.227 710.028 410.917 711.718 412.878 713.031L411.878 714.524L410.886 716.007L410.878 716.016C408.526 714.442 406.501 712.417 404.926 710.065L407.913 708.066ZM621.447 710.065C619.872 712.417 617.848 714.442 615.496 716.016L613.496 713.031C615.458 711.718 617.148 710.028 618.461 708.066L621.447 710.065ZM404.888 698.083C404.888 699.287 405.006 700.461 405.23 701.594L401.704 702.291C401.47 701.106 401.331 699.885 401.3 698.639L401.293 698.083V694.039H404.888V698.083ZM625.082 698.083L625.075 698.639C625.043 699.885 624.904 701.106 624.669 702.291L621.144 701.594C621.368 700.461 621.487 699.287 621.487 698.083V694.039H625.082V698.083ZM405.23 678.395C405.006 679.528 404.888 680.702 404.888 681.907V685.951H401.293V681.907C401.293 680.466 401.435 679.059 401.704 677.698L405.23 678.395ZM624.669 677.698C624.938 679.059 625.082 680.466 625.082 681.907V685.951H621.487V681.907C621.487 680.702 621.368 679.528 621.144 678.395L624.669 677.698ZM412.878 666.958C410.917 668.271 409.227 669.961 407.913 671.923L404.926 669.923C406.501 667.571 408.526 665.546 410.878 663.972L412.878 666.958ZM615.496 663.972C617.847 665.546 619.872 667.571 621.447 669.923L619.955 670.923L619.954 670.922L618.461 671.923C617.148 669.961 615.458 668.271 613.496 666.958L615.496 663.972ZM426.337 663.933H422.863C421.658 663.933 420.484 664.051 419.351 664.275L418.653 660.75C419.839 660.516 421.06 660.377 422.306 660.345L422.863 660.338H426.337V663.933ZM603.512 660.338C604.952 660.338 606.359 660.481 607.72 660.75L607.38 662.478L607.023 664.275C605.89 664.051 604.716 663.933 603.512 663.933H600.038V660.338H603.512ZM440.233 663.933H433.284V660.338H440.233V663.933ZM454.129 663.933H447.181V660.338H454.129V663.933ZM468.025 663.933H461.077V660.338H468.025V663.933ZM481.921 663.933H474.973V660.338H481.921V663.933ZM495.817 663.933H488.869V660.338H495.817V663.933ZM509.713 663.933H502.766V660.338H509.713V663.933ZM523.609 663.933H516.661V660.338H523.609V663.933ZM537.505 663.933H530.558V660.338H537.505V663.933ZM551.402 663.933H544.453V660.338H551.402V663.933ZM565.297 663.933H558.349V660.338H565.297V663.933ZM579.194 663.933H572.246V660.338H579.194V663.933ZM593.09 663.933H586.141V660.338H593.09V663.933ZM466.363 562.383H459.892V558.789H466.363V562.383ZM479.304 562.383H472.833V558.789H479.304V562.383ZM492.247 562.383H485.775V558.789H492.247V562.383ZM506.161 561.971C504.976 562.205 503.756 562.345 502.509 562.376L501.953 562.383H498.718V558.789H501.953C503.158 558.789 504.332 558.671 505.464 558.446L506.161 561.971ZM519.888 552.798C518.314 555.15 516.289 557.175 513.937 558.749L511.937 555.764C513.899 554.45 515.589 552.76 516.902 550.799L519.888 552.798ZM523.523 540.815L523.516 541.372C523.484 542.618 523.345 543.838 523.11 545.023L519.586 544.327C519.81 543.194 519.928 542.02 519.928 540.815V536.771H523.523V540.815ZM523.11 520.43C523.38 521.792 523.523 523.199 523.523 524.639V528.683H519.928V524.639C519.928 523.435 519.81 522.261 519.586 521.128L523.11 520.43ZM513.937 506.704C516.289 508.279 518.314 510.304 519.888 512.656L518.396 513.656L518.395 513.655L516.902 514.656C515.589 512.694 513.899 511.004 511.937 509.691L513.937 506.704ZM501.953 503.071C503.393 503.071 504.8 503.214 506.161 503.483L505.821 505.211L505.464 507.008C504.332 506.784 503.158 506.666 501.953 506.666H498.718V503.071H501.953ZM466.363 506.666H459.892V503.071H466.363V506.666ZM479.304 506.666H472.833V503.071H479.304V506.666ZM492.247 506.666H485.775V503.071H492.247V506.666ZM453.42 506.666H447.779L446.949 506.37V503.071H453.42V506.666ZM440.478 504.069L437.669 503.071H440.478V504.069ZM344.406 402.942C345.653 403.189 346.944 403.319 348.267 403.319H352.048V406.913H348.267C346.708 406.913 345.184 406.76 343.708 406.468L344.406 402.942ZM367.178 406.913H359.613V403.319H367.178V406.913ZM382.307 406.913H374.742V403.319H382.307V406.913ZM397.435 406.913H389.871V403.319H397.435V406.913ZM412.565 406.913H405V403.319H412.565V406.913ZM427.694 406.913H420.129V403.319H427.694V406.913ZM443.599 406.468C442.123 406.76 440.599 406.913 439.04 406.913H435.258V403.319H439.04C440.363 403.319 441.654 403.189 442.901 402.942L443.599 406.468ZM744.699 401.179C745.832 401.403 747.006 401.521 748.21 401.521H751.754V405.116H748.21C746.77 405.116 745.362 404.973 744.001 404.704L744.699 401.179ZM765.927 405.116H758.84V401.521H765.927V405.116ZM780.099 405.116H773.012V401.521H780.099V405.116ZM794.271 405.116H787.185V401.521H794.271V405.116ZM808.444 405.116H801.358V401.521H808.444V405.116ZM822.616 405.116H815.531V401.521H822.616V405.116ZM836.789 405.116H829.703V401.521H836.789V405.116ZM850.962 405.116H843.876V401.521H850.962V405.116ZM865.134 405.116H858.048V401.521H865.134V405.116ZM879.307 405.116H872.22V401.521H879.307V405.116ZM893.48 405.116H886.393V401.521H893.48V405.116ZM907.653 405.116H900.566V401.521H907.653V405.116ZM921.825 405.116H914.738V401.521H921.825V405.116ZM936.663 404.704C935.302 404.973 933.894 405.116 932.454 405.116H928.911V401.521H932.454C933.659 401.521 934.833 401.403 935.966 401.179L936.663 404.704ZM331.823 394.531C333.267 396.688 335.125 398.546 337.282 399.99L335.282 402.976C332.735 401.271 330.542 399.078 328.836 396.531L331.823 394.531ZM458.471 396.531C456.765 399.078 454.572 401.271 452.025 402.976L450.025 399.99C452.182 398.546 454.04 396.688 455.484 394.531L458.471 396.531ZM733.261 393.532C734.574 395.493 736.264 397.183 738.226 398.496L737.225 399.989L736.234 401.472L736.226 401.482C733.874 399.907 731.849 397.883 730.274 395.531L733.261 393.532ZM950.39 395.531C948.815 397.883 946.79 399.907 944.438 401.482L942.439 398.496C944.4 397.183 946.091 395.493 947.404 393.532L950.39 395.531ZM328.494 383.548C328.494 384.871 328.624 386.162 328.871 387.409L325.344 388.106C325.052 386.631 324.899 385.106 324.899 383.548V379.729H328.494V383.548ZM462.408 383.548C462.408 385.106 462.255 386.631 461.963 388.106L458.436 387.409C458.683 386.162 458.813 384.871 458.813 383.548V379.729H462.408V383.548ZM730.235 383.548C730.235 384.753 730.354 385.927 730.578 387.059L727.052 387.756C726.818 386.571 726.679 385.351 726.647 384.104L726.64 383.548V379.729H730.235V383.548ZM954.024 383.548C954.024 384.988 953.881 386.395 953.612 387.756L950.087 387.059C950.311 385.927 950.429 384.753 950.429 383.548V379.729H954.024V383.548ZM328.871 364.41C328.624 365.657 328.494 366.948 328.494 368.271V372.09H324.899V368.271C324.899 366.713 325.052 365.188 325.344 363.712L328.871 364.41ZM461.963 363.712C462.255 365.188 462.408 366.713 462.408 368.271V372.09H458.813V368.271C458.813 366.948 458.683 365.657 458.436 364.41L461.963 363.712ZM730.578 364.759C730.354 365.892 730.235 367.066 730.235 368.271V372.09H726.64V368.271C726.64 366.83 726.783 365.423 727.052 364.062L730.578 364.759ZM953.612 364.062C953.881 365.423 954.024 366.83 954.024 368.271V372.09H950.429V368.271C950.429 367.066 950.311 365.892 950.087 364.759L953.612 364.062ZM738.226 353.322C736.264 354.636 734.574 356.325 733.261 358.287L730.274 356.287C731.849 353.935 733.874 351.91 736.226 350.336L738.226 353.322ZM944.438 350.336C946.79 351.91 948.815 353.935 950.39 356.287L948.898 357.287L948.897 357.286L947.404 358.287C946.091 356.326 944.4 354.636 942.439 353.322L944.438 350.336ZM337.282 351.829C335.125 353.273 333.267 355.131 331.823 357.287L328.836 355.287C330.542 352.74 332.735 350.547 335.282 348.842L337.282 351.829ZM452.025 348.842C454.572 350.547 456.765 352.74 458.471 355.287L455.484 357.287C454.04 355.131 452.181 353.273 450.025 351.829L452.025 348.842ZM751.754 350.297H748.21C747.006 350.297 745.832 350.415 744.699 350.639L744.001 347.114C745.187 346.88 746.407 346.741 747.654 346.71L748.21 346.703H751.754V350.297ZM933.011 346.71C934.257 346.741 935.477 346.88 936.663 347.114L936.322 348.842L935.966 350.639C934.833 350.415 933.659 350.297 932.454 350.297H928.911V346.703H932.454L933.011 346.71ZM765.927 350.297H758.84V346.703H765.927V350.297ZM780.099 350.297H773.012V346.703H780.099V350.297ZM794.271 350.297H787.185V346.703H794.271V350.297ZM808.444 350.297H801.358V346.703H808.444V350.297ZM822.616 350.297H815.531V346.703H822.616V350.297ZM836.789 350.297H829.703V346.703H836.789V350.297ZM850.962 350.297H843.876V346.703H850.962V350.297ZM865.134 350.297H858.048V346.703H865.134V350.297ZM879.307 350.297H872.22V346.703H879.307V350.297ZM893.48 350.297H886.393V346.703H893.48V350.297ZM907.653 350.297H900.566V346.703H907.653V350.297ZM921.825 350.297H914.738V346.703H921.825V350.297ZM352.048 348.5H348.267C346.944 348.5 345.653 348.63 344.406 348.876L343.708 345.35C345.184 345.058 346.708 344.905 348.267 344.905H352.048V348.5ZM439.04 344.905C440.599 344.905 442.123 345.058 443.599 345.35L442.901 348.876C441.654 348.63 440.363 348.5 439.04 348.5H435.258V344.905H439.04ZM367.178 348.5H359.613V344.905H367.178V348.5ZM382.307 348.5H374.742V344.905H382.307V348.5ZM397.435 348.5H389.871V344.905H397.435V348.5ZM412.565 348.5H405V344.905H412.565V348.5ZM427.694 348.5H420.129V344.905H427.694V348.5ZM777.054 243.013C778.187 243.237 779.361 243.355 780.565 243.355H784.222V246.95H780.565C779.125 246.95 777.717 246.807 776.356 246.538L777.054 243.013ZM798.847 246.95H791.534V243.355H798.847V246.95ZM813.472 246.95H806.16V243.355H813.472V246.95ZM828.097 246.95H820.785V243.355H828.097V246.95ZM842.722 246.95H835.409V243.355H842.722V246.95ZM857.347 246.95H850.035V243.355H857.347V246.95ZM871.972 246.95H864.66V243.355H871.972V246.95ZM886.598 246.95H879.285V243.355H886.598V246.95ZM901.223 246.95H893.91V243.355H901.223V246.95ZM915.848 246.95H908.536V243.355H915.848V246.95ZM930.473 246.95H923.16V243.355H930.473V246.95ZM941.656 246.947L941.442 246.95H937.785V245.449L941.656 246.947ZM765.616 235.366C766.929 237.327 768.619 239.017 770.581 240.33L769.58 241.823L768.589 243.306L768.581 243.316C766.229 241.741 764.204 239.717 762.629 237.365L765.616 235.366ZM762.59 225.382C762.59 226.587 762.709 227.761 762.933 228.893L759.407 229.59C759.173 228.405 759.034 227.185 759.002 225.938L758.995 225.382V221.563H762.59V225.382ZM762.933 206.593C762.709 207.726 762.59 208.9 762.59 210.105V213.924H758.995V210.105C758.995 208.664 759.138 207.257 759.407 205.896L762.933 206.593ZM770.581 195.156C768.619 196.47 766.929 198.159 765.616 200.121L762.629 198.121C764.204 195.769 766.229 193.744 768.581 192.17L770.581 195.156ZM784.222 192.131H780.565C779.361 192.131 778.187 192.249 777.054 192.474L776.356 188.948C777.717 188.679 779.125 188.537 780.565 188.537H784.222V192.131ZM798.847 192.131H791.534V188.537H798.847V192.131ZM813.472 192.131H806.16V188.537H813.472V192.131ZM828.097 192.131H820.785V188.537H828.097V192.131ZM842.722 192.131H835.409V188.537H842.722V192.131Z" fill="#00E2FD"/>
<path d="M460.749 896.95C472.661 896.95 482.319 906.607 482.319 918.518V934.432C482.318 946.343 472.661 956 460.749 956H422.688C410.775 956 401.118 946.343 401.118 934.432V918.518C401.118 906.607 410.775 896.95 422.688 896.95H460.749ZM603.466 896.95C615.378 896.95 625.036 906.607 625.036 918.518V934.432C625.035 946.343 615.378 956 603.466 956H523.574C511.662 956 502.004 946.343 502.004 934.432V918.518C502.004 906.607 511.662 896.95 523.574 896.95H603.466ZM678.235 798.38C689.986 796.426 701.096 804.368 703.05 816.118L705.662 831.817C707.615 843.567 699.672 854.676 687.921 856.63L509.592 886.278C497.84 888.232 486.73 880.29 484.776 868.539L482.166 852.842C480.212 841.091 488.154 829.982 499.906 828.028L678.235 798.38ZM481.664 739.484C493.577 739.484 503.235 749.14 503.235 761.052V776.965C503.235 788.877 493.577 798.533 481.665 798.534H422.688C410.775 798.533 401.118 788.877 401.118 776.965V761.052C401.118 749.14 410.775 739.484 422.688 739.484H481.664ZM603.466 739.484C615.378 739.484 625.036 749.14 625.036 761.052V776.965C625.035 788.877 615.378 798.533 603.466 798.534H544.49C532.577 798.534 522.92 788.877 522.92 776.965V761.052C522.92 749.14 532.577 739.484 544.49 739.484H603.466ZM438.603 582.017C450.516 582.017 460.173 591.674 460.173 603.585V619.499C460.173 631.411 450.516 641.067 438.603 641.067H422.688C410.775 641.067 401.118 631.411 401.118 619.499V603.585C401.118 591.674 410.775 582.017 422.688 582.017H438.603ZM603.466 582.017C615.378 582.017 625.036 591.674 625.036 603.585V619.499C625.036 631.411 615.378 641.067 603.466 641.067H501.428C489.516 641.067 479.859 631.411 479.858 619.499V603.585C479.859 591.674 489.516 582.017 501.428 582.017H603.466ZM341.089 491.62C345.081 480.397 357.416 474.534 368.64 478.525L454.346 509.001C465.57 512.992 471.433 525.325 467.442 536.548L462.11 551.542C458.118 562.765 445.784 568.628 434.559 564.637L348.852 534.162C337.628 530.171 331.765 517.837 335.757 506.614L341.089 491.62ZM603.466 503.284C615.378 503.285 625.035 512.94 625.036 524.852V540.766C625.035 552.678 615.378 562.334 603.466 562.334H565.405C553.492 562.334 543.835 552.678 543.835 540.766V524.852C543.835 512.941 553.492 503.284 565.405 503.284H603.466ZM603.466 424.551C615.378 424.551 625.035 434.207 625.036 446.119V462.032C625.036 473.944 615.378 483.6 603.466 483.601H422.688C410.775 483.6 401.118 473.944 401.118 462.032V446.119C401.118 434.207 410.775 424.551 422.688 424.551H603.466ZM286.044 345.818C297.957 345.818 307.614 355.474 307.614 367.386V383.3C307.614 395.211 297.957 404.868 286.044 404.868H117.57C105.657 404.868 96.0001 395.211 96 383.3V367.386C96.0001 355.474 105.657 345.818 117.57 345.818H286.044ZM685.897 345.818C697.809 345.818 707.467 355.475 707.467 367.386V383.3C707.467 395.211 697.809 404.867 685.897 404.868H502.659C490.746 404.868 481.089 395.211 481.089 383.3V367.386C481.089 355.474 490.746 345.818 502.659 345.818H685.897ZM359.863 267.084C371.776 267.084 381.433 276.741 381.433 288.652V304.566C381.433 316.478 371.776 326.134 359.863 326.134H215.995C204.083 326.134 194.425 316.478 194.425 304.566V288.652C194.426 276.741 204.083 267.084 215.995 267.084H359.863ZM603.466 267.084C615.378 267.084 625.035 276.741 625.036 288.652V304.566C625.036 316.478 615.378 326.134 603.466 326.134H422.688C410.775 326.134 401.118 316.478 401.118 304.566V288.652C401.118 276.741 410.775 267.084 422.688 267.084H603.466ZM775.71 267.084C787.622 267.084 797.279 276.741 797.28 288.652V304.566C797.28 316.478 787.622 326.134 775.71 326.134H666.29C654.378 326.134 644.72 316.478 644.72 304.566V288.652C644.721 276.741 654.378 267.084 666.29 267.084H775.71ZM883.977 267.084C895.89 267.084 905.547 276.741 905.547 288.652V304.566C905.547 316.478 895.89 326.134 883.977 326.134H838.534C826.622 326.134 816.964 316.478 816.964 304.566V288.652C816.965 276.741 826.622 267.084 838.534 267.084H883.977ZM853.868 172.79C858.168 161.681 870.659 156.161 881.769 160.459L1006.76 208.822C1017.87 213.121 1023.39 225.612 1019.09 236.721L1013.35 251.562C1009.05 262.671 996.56 268.192 985.45 263.893L860.457 215.529C849.347 211.23 843.826 198.74 848.125 187.631L853.868 172.79ZM304.499 188.351C316.411 188.352 326.069 198.008 326.069 209.92V225.833C326.069 237.745 316.411 247.401 304.499 247.401H136.025C124.112 247.401 114.455 237.745 114.455 225.833V209.92C114.455 198.008 124.112 188.351 136.025 188.351H304.499ZM506.271 188.351C518.183 188.352 527.841 198.008 527.841 209.92V225.833C527.841 237.745 518.183 247.401 506.271 247.401H367.324C355.412 247.401 345.754 237.745 345.754 225.833V209.92C345.754 198.008 355.412 188.351 367.324 188.351H506.271ZM717.885 188.351C729.798 188.352 739.455 198.008 739.455 209.92V225.833C739.455 237.745 729.798 247.401 717.885 247.401H569.095C557.183 247.401 547.525 237.745 547.525 225.833V209.92C547.526 198.008 557.183 188.352 569.095 188.351H717.885Z" fill="url(#paint0_linear_11_41)"/>
<path d="M460.749 954.203V956H422.688V954.203H460.749ZM603.466 954.203V956H523.574V954.203H603.466ZM623.238 934.432V918.518C623.238 907.599 614.386 898.748 603.466 898.748H523.574C512.654 898.748 503.802 907.599 503.802 918.518V934.432C503.802 945.351 512.654 954.203 523.574 954.203V956L523.018 955.993C511.547 955.703 502.302 946.458 502.011 934.988L502.004 934.432V918.518C502.004 906.793 511.362 897.252 523.018 896.957L523.574 896.95H603.466L604.022 896.957C615.678 897.252 625.036 906.793 625.036 918.518V934.432L625.029 934.988C624.738 946.458 615.492 955.702 604.022 955.993L603.466 956V954.203C614.385 954.203 623.238 945.351 623.238 934.432ZM480.521 934.432V918.518C480.521 907.77 471.943 899.024 461.259 898.754L460.749 898.748H422.688C411.768 898.748 402.915 907.599 402.915 918.518V934.432C402.916 945.351 411.768 954.202 422.688 954.203V956L422.131 955.993C410.661 955.702 401.416 946.458 401.125 934.988L401.118 934.432V918.518C401.118 906.793 410.476 897.253 422.131 896.957L422.688 896.95H460.749L461.305 896.957C472.961 897.252 482.319 906.793 482.319 918.518V934.432L482.312 934.988C482.021 946.458 472.776 955.702 461.305 955.993L460.749 956V954.203C471.668 954.203 480.521 945.351 480.521 934.432ZM678.235 798.38C689.986 796.426 701.096 804.368 703.05 816.118L705.662 831.817C707.615 843.567 699.672 854.676 687.921 856.63L509.592 886.278L509.042 886.363C497.679 887.957 487.042 880.354 484.874 869.087L484.776 868.539L482.166 852.842C480.243 841.275 487.909 830.329 499.358 828.126L499.906 828.028L678.235 798.38ZM701.278 816.413C699.486 805.642 689.302 798.362 678.53 800.153L500.201 829.801C489.429 831.592 482.148 841.776 483.939 852.547L486.549 868.245C488.34 879.016 498.525 886.296 509.297 884.506L687.626 854.857C698.398 853.066 705.679 842.883 703.889 832.112L701.278 816.413ZM481.665 796.736V798.534H422.688V796.736H481.665ZM603.466 796.736V798.534H544.49V796.736H603.466ZM623.238 776.965V761.052C623.238 750.133 614.386 741.281 603.466 741.281H544.49C533.57 741.281 524.717 750.133 524.717 761.052V776.965C524.717 787.884 533.57 796.736 544.49 796.736V798.534L543.933 798.527C532.462 798.236 523.217 788.991 522.927 777.522L522.92 776.965V761.052C522.92 749.326 532.278 739.786 543.933 739.491L544.49 739.484H603.466L604.022 739.491C615.678 739.786 625.036 749.326 625.036 761.052V776.965L625.029 777.522C624.738 788.991 615.493 798.236 604.022 798.527L603.466 798.534V796.736C614.385 796.736 623.238 787.884 623.238 776.965ZM501.437 776.965V761.052C501.437 750.303 492.858 741.558 482.174 741.287L481.664 741.281H422.688C411.768 741.281 402.915 750.133 402.915 761.052V776.965C402.916 787.884 411.768 796.736 422.688 796.736V798.534L422.131 798.527C410.661 798.236 401.415 788.991 401.125 777.522L401.118 776.965V761.052C401.118 749.326 410.476 739.786 422.131 739.491L422.688 739.484H481.664L482.22 739.491C493.876 739.786 503.235 749.326 503.235 761.052V776.965L503.228 777.522C502.937 788.991 493.692 798.236 482.221 798.527L481.665 798.534V796.736C492.584 796.736 501.437 787.884 501.437 776.965ZM438.603 639.27V641.067H422.688V639.27H438.603ZM603.466 639.27V641.067H501.428V639.27H603.466ZM623.238 619.499V603.585C623.238 592.666 614.386 583.815 603.466 583.815H501.428C490.509 583.815 481.656 592.666 481.656 603.585V619.499C481.656 630.418 490.509 639.27 501.428 639.27V641.067L500.872 641.06C489.401 640.77 480.156 631.525 479.866 620.055L479.858 619.499V603.585C479.859 591.86 489.216 582.319 500.872 582.024L501.428 582.017H603.466L604.022 582.024C615.678 582.319 625.036 591.86 625.036 603.585V619.499L625.029 620.055C624.738 631.525 615.493 640.769 604.022 641.06L603.466 641.067V639.27C614.386 639.27 623.238 630.418 623.238 619.499ZM458.375 619.499V603.585C458.375 592.837 449.797 584.091 439.113 583.821L438.603 583.815H422.688C411.768 583.815 402.915 592.666 402.915 603.585V619.499C402.915 630.418 411.768 639.269 422.688 639.27V641.067L422.131 641.06C410.661 640.769 401.415 631.525 401.125 620.055L401.118 619.499V603.585C401.118 591.86 410.476 582.32 422.131 582.024L422.688 582.017H438.603L439.159 582.024C450.815 582.319 460.173 591.86 460.173 603.585V619.499L460.166 620.055C459.875 631.525 450.63 640.769 439.159 641.06L438.603 641.067V639.27C449.523 639.27 458.375 630.418 458.375 619.499ZM341.089 491.62C345.081 480.397 357.416 474.534 368.64 478.525L454.346 509.001C465.57 512.992 471.433 525.325 467.442 536.548L462.11 551.542L461.917 552.064C457.8 562.774 445.991 568.386 435.086 564.817L434.559 564.637L348.852 534.162C337.804 530.233 331.95 518.22 335.577 507.141L335.757 506.614L341.089 491.62ZM368.038 480.218C357.749 476.56 346.442 481.934 342.783 492.222L337.45 507.216C333.792 517.504 339.166 528.81 349.455 532.468L435.161 562.943C445.45 566.602 456.757 561.228 460.416 550.94L465.748 535.946C469.406 525.659 464.032 514.353 453.744 510.694L368.038 480.218ZM603.466 560.537V562.334H565.405V560.537H603.466ZM623.238 540.766V524.852C623.238 513.933 614.385 505.082 603.466 505.082H565.405C554.485 505.082 545.632 513.933 545.632 524.852V540.766C545.633 551.685 554.485 560.537 565.405 560.537V562.334L564.848 562.327C553.378 562.037 544.133 552.792 543.842 541.323L543.835 540.766V524.852C543.835 513.127 553.193 503.587 564.848 503.291L565.405 503.284H603.466L604.022 503.291C615.677 503.587 625.035 513.126 625.036 524.852V540.766L625.029 541.323C624.738 552.792 615.492 562.037 604.022 562.327L603.466 562.334V560.537C614.385 560.537 623.238 551.685 623.238 540.766ZM603.466 481.803V483.601H422.688V481.803H603.466ZM623.238 462.032V446.119C623.238 435.2 614.385 426.348 603.466 426.348H422.688C411.768 426.348 402.915 435.2 402.915 446.119V462.032C402.915 472.951 411.768 481.803 422.688 481.803V483.601L422.131 483.594C410.661 483.303 401.415 474.058 401.125 462.589L401.118 462.032V446.119C401.118 434.393 410.476 424.853 422.131 424.558L422.688 424.551H603.466L604.022 424.558C615.677 424.853 625.035 434.393 625.036 446.119V462.032L625.029 462.589C624.738 474.058 615.493 483.303 604.022 483.594L603.466 483.601V481.803C614.386 481.803 623.238 472.951 623.238 462.032ZM286.044 403.07V404.868H117.57V403.07H286.044ZM685.897 403.07V404.868H502.659V403.07H685.897ZM705.669 383.3V367.386C705.669 356.638 697.091 347.892 686.407 347.621L685.897 347.615H502.659C491.739 347.615 482.887 356.467 482.886 367.386V383.3C482.887 394.219 491.739 403.07 502.659 403.07V404.868L502.103 404.861C490.632 404.57 481.387 395.326 481.096 383.856L481.089 383.3V367.386C481.089 355.66 490.447 346.12 502.103 345.825L502.659 345.818H685.897L686.453 345.825C698.109 346.12 707.467 355.661 707.467 367.386V383.3L707.46 383.856C707.169 395.325 697.924 404.57 686.453 404.861L685.897 404.868V403.07C696.817 403.07 705.669 394.218 705.669 383.3ZM305.817 383.3V367.386C305.817 356.638 297.239 347.892 286.554 347.621L286.044 347.615H117.57C106.65 347.615 97.7976 356.467 97.7975 367.386V383.3C97.7977 394.219 106.65 403.07 117.57 403.07V404.868L117.014 404.861C105.543 404.57 96.2977 395.326 96.007 383.856L96 383.3V367.386C96.0001 355.66 105.358 346.12 117.014 345.825L117.57 345.818H286.044L286.601 345.825C298.256 346.12 307.614 355.661 307.614 367.386V383.3L307.607 383.856C307.317 395.325 298.071 404.57 286.601 404.861L286.044 404.868V403.07C296.964 403.07 305.817 394.218 305.817 383.3ZM359.863 324.337V326.134H215.995V324.337H359.863ZM603.466 324.337V326.134H422.688V324.337H603.466ZM775.71 324.337V326.134H666.29V324.337H775.71ZM883.977 324.337V326.134H838.534V324.337H883.977ZM903.75 304.566V288.652C903.75 277.733 894.897 268.882 883.977 268.882H838.534C827.615 268.882 818.762 277.733 818.762 288.652V304.566C818.762 315.485 827.615 324.337 838.534 324.337V326.134L837.978 326.127C826.507 325.836 817.262 316.592 816.971 305.122L816.964 304.566V288.652C816.965 276.927 826.323 267.387 837.978 267.091L838.534 267.084H883.977L884.534 267.091C896.189 267.387 905.547 276.927 905.547 288.652V304.566L905.54 305.122C905.25 316.592 896.004 325.836 884.534 326.127L883.977 326.134V324.337C894.897 324.337 903.75 315.485 903.75 304.566ZM795.482 304.566V288.652C795.482 277.733 786.629 268.882 775.71 268.882H666.29C655.371 268.882 646.518 277.733 646.518 288.652V304.566C646.518 315.485 655.37 324.337 666.29 324.337V326.134L665.734 326.127C654.263 325.836 645.018 316.592 644.727 305.122L644.72 304.566V288.652C644.721 276.927 654.079 267.387 665.734 267.091L666.29 267.084H775.71L776.266 267.091C787.922 267.386 797.279 276.927 797.28 288.652V304.566L797.273 305.122C796.982 316.592 787.737 325.837 776.266 326.127L775.71 326.134V324.337C786.63 324.337 795.482 315.485 795.482 304.566ZM623.238 304.566V288.652C623.238 277.733 614.385 268.882 603.466 268.882H422.688C411.768 268.882 402.916 277.734 402.915 288.652V304.566C402.915 315.485 411.768 324.337 422.688 324.337V326.134L422.131 326.127C410.661 325.836 401.415 316.592 401.125 305.122L401.118 304.566V288.652C401.118 276.927 410.476 267.387 422.131 267.091L422.688 267.084H603.466L604.022 267.091C615.677 267.387 625.035 276.927 625.036 288.652V304.566L625.029 305.122C624.738 316.592 615.493 325.836 604.022 326.127L603.466 326.134V324.337C614.386 324.337 623.238 315.485 623.238 304.566ZM379.636 304.566V288.652C379.635 277.904 371.057 269.158 360.373 268.888L359.863 268.882H215.995C205.076 268.882 196.223 277.733 196.223 288.652V304.566C196.223 315.485 205.075 324.337 215.995 324.337V326.134L215.439 326.127C203.968 325.837 194.723 316.592 194.432 305.122L194.425 304.566V288.652C194.426 276.927 203.784 267.386 215.439 267.091L215.995 267.084H359.863L360.42 267.091C372.075 267.386 381.433 276.927 381.433 288.652V304.566L381.426 305.122C381.135 316.592 371.89 325.837 360.42 326.127L359.863 326.134V324.337C370.783 324.337 379.635 315.485 379.636 304.566ZM853.868 172.79C858.168 161.681 870.659 156.161 881.769 160.459L1006.76 208.822C1017.87 213.121 1023.39 225.612 1019.09 236.721L1013.35 251.562L1013.14 252.078C1008.73 262.67 996.774 267.956 985.972 264.087L985.45 263.893L860.457 215.529C849.521 211.298 844 199.128 847.931 188.152L848.125 187.631L853.868 172.79ZM881.121 162.136C870.937 158.195 859.486 163.255 855.545 173.438L849.801 188.279C845.86 198.463 850.922 209.912 861.106 213.853L986.099 262.217C996.283 266.157 1007.73 261.096 1011.67 250.913L1017.42 236.072C1021.36 225.889 1016.3 214.439 1006.11 210.499L881.121 162.136ZM304.499 245.604V247.401H136.025V245.604H304.499ZM506.271 245.604V247.401H367.324V245.604H506.271ZM717.885 245.604V247.401H569.095V245.604H717.885ZM737.658 225.833V209.92C737.658 199.171 729.079 190.426 718.395 190.155L717.885 190.149H569.095C558.176 190.149 549.323 199.001 549.323 209.92V225.833C549.323 236.752 558.176 245.604 569.095 245.604V247.401L568.539 247.394C557.068 247.104 547.823 237.859 547.532 226.39L547.525 225.833V209.92C547.526 198.194 556.884 188.654 568.539 188.358L569.095 188.351H717.885L718.442 188.358C730.097 188.654 739.455 198.194 739.455 209.92V225.833L739.448 226.39C739.158 237.859 729.912 247.104 718.442 247.394L717.885 247.401V245.604C728.805 245.604 737.657 236.752 737.658 225.833ZM526.043 225.833V209.92C526.043 199.171 517.465 190.425 506.781 190.155L506.271 190.149H367.324C356.404 190.149 347.552 199 347.552 209.92V225.833C347.552 236.752 356.404 245.604 367.324 245.604V247.401L366.768 247.394C355.297 247.104 346.052 237.859 345.761 226.39L345.754 225.833V209.92C345.754 198.194 355.112 188.654 366.768 188.358L367.324 188.351H506.271L506.827 188.358C518.483 188.654 527.841 198.194 527.841 209.92V225.833L527.834 226.39C527.543 237.859 518.298 247.104 506.827 247.394L506.271 247.401V245.604C517.191 245.604 526.043 236.752 526.043 225.833ZM324.271 225.833V209.92C324.271 199.171 315.693 190.425 305.009 190.155L304.499 190.149H136.025C125.105 190.149 116.253 199 116.253 209.92V225.833C116.253 236.752 125.105 245.604 136.025 245.604V247.401L135.469 247.394C123.998 247.104 114.753 237.859 114.462 226.39L114.455 225.833V209.92C114.455 198.194 123.813 188.654 135.469 188.358L136.025 188.351H304.499L305.055 188.358C316.711 188.654 326.069 198.194 326.069 209.92V225.833L326.062 226.39C325.771 237.859 316.526 247.104 305.055 247.394L304.499 247.401V245.604C315.419 245.604 324.271 236.752 324.271 225.833Z" fill="url(#paint1_linear_11_41)"/>
<path d="M705.587 803.107C704.958 804.107 704.3 805.093 703.613 806.063C703.039 806.873 701.917 807.064 701.107 806.49C700.297 805.917 700.105 804.795 700.679 803.985C701.328 803.069 701.949 802.138 702.543 801.194L705.587 803.107ZM711.783 790.369C710.984 792.589 710.066 794.772 709.029 796.905L705.796 795.333C706.776 793.317 707.644 791.254 708.4 789.152L711.783 790.369ZM715.164 776.628C714.837 778.969 714.392 781.291 713.829 783.584L710.337 782.727C710.871 780.554 711.293 778.351 711.604 776.13L715.164 776.628ZM715.737 762.506C715.871 764.866 715.891 767.227 715.796 769.577L712.205 769.433C712.294 767.199 712.276 764.955 712.149 762.708L715.737 762.506ZM713.614 748.544C714.187 750.838 714.649 753.15 715.003 755.471L711.449 756.012C711.112 753.802 710.671 751.6 710.126 749.413L713.614 748.544ZM708.953 735.218C709.936 737.371 710.814 739.559 711.589 741.771L708.196 742.959C707.457 740.849 706.62 738.764 705.683 736.711L708.953 735.218ZM701.946 722.963C703.306 724.907 704.567 726.899 705.729 728.932L702.608 730.716C701.5 728.778 700.297 726.878 699.001 725.024L701.946 722.963ZM692.849 712.178C694.539 713.85 696.138 715.583 697.644 717.368L694.896 719.686C693.459 717.983 691.933 716.329 690.321 714.734L692.849 712.178ZM681.99 703.187C683.948 704.538 685.822 705.958 687.614 707.44L685.322 710.21C683.611 708.794 681.819 707.437 679.948 706.146L681.99 703.187ZM669.749 696.189C671.912 697.198 674.002 698.281 676.018 699.432L674.235 702.554C672.306 701.452 670.304 700.414 668.23 699.447L669.749 696.189ZM656.583 691.261C658.871 691.924 661.095 692.662 663.255 693.469L661.997 696.836C659.922 696.061 657.783 695.352 655.582 694.714L656.583 691.261ZM642.861 688.314C645.218 688.655 647.522 689.069 649.771 689.55L649.018 693.065C646.849 692.601 644.625 692.202 642.346 691.872L642.861 688.314ZM632.362 687.301C633.55 687.361 634.727 687.438 635.892 687.532L635.602 691.115C634.474 691.024 633.333 690.948 632.181 690.89C631.19 690.84 630.427 689.996 630.476 689.005C630.527 688.014 631.37 687.251 632.362 687.301Z" fill="#00E2FD"/>
<path d="M964.17 377.967C962.909 378.054 961.642 378.117 960.369 378.155C959.377 378.184 958.548 377.404 958.519 376.412C958.489 375.42 959.269 374.591 960.262 374.562C961.488 374.525 962.709 374.465 963.922 374.381L964.17 377.967ZM979.181 375.731C976.73 376.298 974.238 376.772 971.714 377.147L971.185 373.591C973.616 373.23 976.013 372.775 978.371 372.229L979.181 375.731ZM993.647 371.122C991.32 372.079 988.94 372.948 986.511 373.721L985.42 370.296C987.755 369.552 990.043 368.718 992.279 367.798L993.647 371.122ZM1007.17 364.168C1005.03 365.51 1002.83 366.767 1000.56 367.933L998.912 364.736C1001.09 363.617 1003.21 362.412 1005.25 361.126L1007.17 364.168ZM1019.27 354.95C1017.41 356.66 1015.46 358.292 1013.42 359.838L1011.25 356.976C1013.19 355.496 1015.06 353.936 1016.84 352.302L1019.27 354.95ZM1029.44 343.608C1027.95 345.656 1026.34 347.634 1024.63 349.534L1021.96 347.132C1023.59 345.32 1025.12 343.436 1026.54 341.486L1029.44 343.608ZM1037.11 330.412C1036.07 332.743 1034.91 335.013 1033.63 337.217L1030.52 335.409C1031.74 333.316 1032.84 331.161 1033.83 328.951L1037.11 330.412ZM1041.73 315.848C1041.23 318.368 1040.6 320.841 1039.83 323.26L1036.4 322.173C1037.13 319.882 1037.73 317.54 1038.2 315.155L1041.73 315.848ZM1042.97 300.616C1043.05 303.201 1042.98 305.754 1042.78 308.269L1039.19 307.979C1039.39 305.597 1039.45 303.177 1039.38 300.724L1042.97 300.616ZM1040.91 285.513C1041.52 288.033 1041.99 290.535 1042.33 293.014L1038.77 293.503C1038.45 291.147 1037.99 288.764 1037.41 286.36L1040.91 285.513ZM1035.97 271.126C1037.02 273.488 1037.95 275.842 1038.75 278.183L1035.36 279.355C1034.58 277.114 1033.69 274.858 1032.68 272.588L1035.97 271.126ZM1028.74 257.808C1030.14 259.984 1031.43 262.158 1032.6 264.327L1029.45 266.045C1028.31 263.953 1027.07 261.854 1025.72 259.749L1028.74 257.808ZM1019.61 248.233C1020.39 247.619 1021.52 247.754 1022.13 248.535C1022.93 249.549 1023.7 250.563 1024.45 251.577L1021.56 253.712C1020.83 252.727 1020.08 251.742 1019.31 250.757C1018.69 249.976 1018.83 248.846 1019.61 248.233Z" fill="#00E2FD"/>
<path d="M331.128 488.434C331.864 489.32 332.629 490.203 333.423 491.082C334.088 491.818 334.03 492.955 333.294 493.621C332.557 494.286 331.42 494.228 330.755 493.492C329.928 492.577 329.131 491.656 328.362 490.732L331.128 488.434ZM323.209 476.958C324.315 478.936 325.543 480.909 326.899 482.87L323.942 484.915C322.522 482.861 321.234 480.79 320.071 478.71L323.209 476.958ZM317.726 464.206C318.394 466.374 319.193 468.548 320.129 470.721L316.828 472.144C315.84 469.853 314.997 467.557 314.291 465.264L317.726 464.206ZM315.165 450.598C315.328 452.87 315.622 455.165 316.058 457.475L312.525 458.141C312.064 455.695 311.751 453.263 311.579 450.855L315.165 450.598ZM315.784 436.773C315.418 439.027 315.177 441.329 315.072 443.665L311.481 443.505C311.592 441.027 311.847 438.588 312.235 436.197L315.784 436.773ZM319.575 423.464C318.697 425.574 317.932 427.759 317.292 430.006L313.834 429.023C314.512 426.639 315.324 424.322 316.255 422.083L319.575 423.464ZM326.365 411.428C325.014 413.258 323.757 415.198 322.609 417.235L319.476 415.471C320.696 413.307 322.033 411.242 323.473 409.292L326.365 411.428ZM330.885 401.086C331.621 400.421 332.758 400.479 333.423 401.216C334.088 401.952 334.03 403.089 333.293 403.754C332.448 404.516 331.623 405.315 330.82 406.149L328.231 403.654C329.092 402.762 329.977 401.905 330.885 401.086Z" fill="#00E2FD"/>
<defs>
<linearGradient id="paint0_linear_11_41" x1="80.5276" y1="480.647" x2="752.002" y2="936.563" gradientUnits="userSpaceOnUse">
<stop stop-color="#00E2FD"/>
<stop offset="1" stop-color="#00E2FD"/>
</linearGradient>
<linearGradient id="paint1_linear_11_41" x1="96" y1="557.477" x2="1021.07" y2="557.477" gradientUnits="userSpaceOnUse">
<stop stop-color="#02F3FF"/>
<stop offset="1" stop-color="#019299"/>
</linearGradient>
</defs>
</svg>
