<svg width="40" height="40" viewBox="0 0 1096 1096" fill="none" xmlns="http://www.w3.org/2000/svg">
<path d="M445.351 863.88C446.484 864.104 447.658 864.222 448.863 864.222H452.57V867.817H448.863L448.306 867.81C447.06 867.778 445.839 867.639 444.653 867.404L445.351 863.88ZM467.4 867.817H459.985V864.222H467.4V867.817ZM482.229 867.817H474.814V864.222H482.229V867.817ZM497.058 867.817H489.644V864.222H497.058V867.817ZM511.888 867.817H504.473V864.222H511.888V867.817ZM433.913 856.232C435.227 858.194 436.917 859.884 438.878 861.197L437.878 862.69L436.886 864.173L436.878 864.182C434.526 862.608 432.501 860.583 430.926 858.231L433.913 856.232ZM430.888 846.249C430.888 847.453 431.006 848.627 431.23 849.76L427.704 850.457C427.47 849.272 427.331 848.051 427.3 846.805L427.293 846.249V842.205H430.888V846.249ZM431.23 826.561C431.006 827.694 430.888 828.868 430.888 830.072V834.116H427.293V830.072C427.293 828.632 427.435 827.225 427.704 825.863L431.23 826.561ZM438.878 815.124C436.917 816.437 435.227 818.127 433.913 820.089L430.926 818.089C432.501 815.737 434.526 813.712 436.878 812.138L438.878 815.124ZM452.57 812.099H448.863C447.658 812.099 446.484 812.217 445.351 812.441L444.653 808.916C446.015 808.647 447.422 808.504 448.863 808.504H452.57V812.099ZM467.4 812.099H459.985V808.504H467.4V812.099ZM482.229 812.099H474.814V808.504H482.229V812.099ZM497.058 812.099H489.644V808.504H497.058V812.099ZM511.888 812.099H504.473V808.504H511.888V812.099ZM526.717 812.099H519.302V808.504H526.717V812.099ZM541.546 812.099H534.132V808.504H541.546V812.099ZM556.376 812.099H548.961V808.504H556.376V812.099ZM567.498 808.504C568.938 808.504 570.345 808.647 571.706 808.916L571.401 810.464L563.791 811.73V808.504H567.498ZM445.351 705.714C446.484 705.938 447.658 706.056 448.863 706.056H452.337V709.651H448.863L448.306 709.644C447.06 709.612 445.839 709.473 444.653 709.238L445.351 705.714ZM466.233 709.651H459.284V706.056H466.233V709.651ZM480.129 709.651H473.181V706.056H480.129V709.651ZM494.025 709.651H487.077V706.056H494.025V709.651ZM507.921 709.651H500.973V706.056H507.921V709.651ZM521.817 709.651H514.869V706.056H521.817V709.651ZM535.713 709.651H528.766V706.056H535.713V709.651ZM549.609 709.651H542.661V706.056H549.609V709.651ZM563.505 709.651H556.558V706.056H563.505V709.651ZM577.402 709.651H570.453V706.056H577.402V709.651ZM591.297 709.651H584.349V706.056H591.297V709.651ZM605.194 709.651H598.246V706.056H605.194V709.651ZM619.09 709.651H612.141V706.056H619.09V709.651ZM633.72 709.238C632.359 709.507 630.952 709.651 629.512 709.651H626.038V706.056H629.512C630.716 706.056 631.89 705.938 633.023 705.714L633.72 709.238ZM433.913 698.066C435.227 700.028 436.917 701.718 438.878 703.031L437.878 704.524L436.886 706.007L436.878 706.016C434.526 704.442 432.501 702.417 430.926 700.065L433.913 698.066ZM647.447 700.065C645.872 702.417 643.848 704.442 641.496 706.016L639.496 703.031C641.458 701.718 643.148 700.028 644.461 698.066L647.447 700.065ZM430.888 688.083C430.888 689.287 431.006 690.461 431.23 691.594L427.704 692.291C427.47 691.106 427.331 689.885 427.3 688.639L427.293 688.083V684.039H430.888V688.083ZM651.082 688.083L651.075 688.639C651.043 689.885 650.904 691.106 650.669 692.291L647.144 691.594C647.368 690.461 647.487 689.287 647.487 688.083V684.039H651.082V688.083ZM431.23 668.395C431.006 669.528 430.888 670.702 430.888 671.907V675.951H427.293V671.907C427.293 670.466 427.435 669.059 427.704 667.698L431.23 668.395ZM650.669 667.698C650.938 669.059 651.082 670.466 651.082 671.907V675.951H647.487V671.907C647.487 670.702 647.368 669.528 647.144 668.395L650.669 667.698ZM438.878 656.958C436.917 658.271 435.227 659.961 433.913 661.923L430.926 659.923C432.501 657.571 434.526 655.546 436.878 653.972L438.878 656.958ZM641.496 653.972C643.847 655.546 645.872 657.571 647.447 659.923L645.955 660.923L645.954 660.922L644.461 661.923C643.148 659.961 641.458 658.271 639.496 656.958L641.496 653.972ZM452.337 653.933H448.863C447.658 653.933 446.484 654.051 445.351 654.275L444.653 650.75C445.839 650.516 447.06 650.377 448.306 650.345L448.863 650.338H452.337V653.933ZM629.512 650.338C630.952 650.338 632.359 650.481 633.72 650.75L633.38 652.478L633.023 654.275C631.89 654.051 630.716 653.933 629.512 653.933H626.038V650.338H629.512ZM466.233 653.933H459.284V650.338H466.233V653.933ZM480.129 653.933H473.181V650.338H480.129V653.933ZM494.025 653.933H487.077V650.338H494.025V653.933ZM507.921 653.933H500.973V650.338H507.921V653.933ZM521.817 653.933H514.869V650.338H521.817V653.933ZM535.713 653.933H528.766V650.338H535.713V653.933ZM549.609 653.933H542.661V650.338H549.609V653.933ZM563.505 653.933H556.558V650.338H563.505V653.933ZM577.402 653.933H570.453V650.338H577.402V653.933ZM591.297 653.933H584.349V650.338H591.297V653.933ZM605.194 653.933H598.246V650.338H605.194V653.933ZM619.09 653.933H612.141V650.338H619.09V653.933ZM492.363 552.383H485.892V548.789H492.363V552.383ZM505.304 552.383H498.833V548.789H505.304V552.383ZM518.247 552.383H511.775V548.789H518.247V552.383ZM532.161 551.971C530.976 552.205 529.756 552.345 528.509 552.376L527.953 552.383H524.718V548.789H527.953C529.158 548.789 530.332 548.671 531.464 548.446L532.161 551.971ZM545.888 542.798C544.314 545.15 542.289 547.175 539.937 548.749L537.937 545.764C539.899 544.45 541.589 542.76 542.902 540.799L545.888 542.798ZM549.523 530.815L549.516 531.372C549.484 532.618 549.345 533.838 549.11 535.023L545.586 534.327C545.81 533.194 545.928 532.02 545.928 530.815V526.771H549.523V530.815ZM549.11 510.43C549.38 511.792 549.523 513.199 549.523 514.639V518.683H545.928V514.639C545.928 513.435 545.81 512.261 545.586 511.128L549.11 510.43ZM539.937 496.704C542.289 498.279 544.314 500.304 545.888 502.656L544.396 503.656L544.395 503.655L542.902 504.656C541.589 502.694 539.899 501.004 537.937 499.691L539.937 496.704ZM527.953 493.071C529.393 493.071 530.8 493.214 532.161 493.483L531.821 495.211L531.464 497.008C530.332 496.784 529.158 496.666 527.953 496.666H524.718V493.071H527.953ZM492.363 496.666H485.892V493.071H492.363V496.666ZM505.304 496.666H498.833V493.071H505.304V496.666ZM518.247 496.666H511.775V493.071H518.247V496.666ZM479.42 496.666H473.779L472.949 496.37V493.071H479.42V496.666ZM466.478 494.069L463.669 493.071H466.478V494.069ZM370.406 392.942C371.653 393.189 372.944 393.319 374.267 393.319H378.048V396.913H374.267C372.708 396.913 371.184 396.76 369.708 396.468L370.406 392.942ZM393.178 396.913H385.613V393.319H393.178V396.913ZM408.307 396.913H400.742V393.319H408.307V396.913ZM423.435 396.913H415.871V393.319H423.435V396.913ZM438.565 396.913H431V393.319H438.565V396.913ZM453.694 396.913H446.129V393.319H453.694V396.913ZM469.599 396.468C468.123 396.76 466.599 396.913 465.04 396.913H461.258V393.319H465.04C466.363 393.319 467.654 393.189 468.901 392.942L469.599 396.468ZM770.699 391.179C771.832 391.403 773.006 391.521 774.21 391.521H777.754V395.116H774.21C772.77 395.116 771.362 394.973 770.001 394.704L770.699 391.179ZM791.927 395.116H784.84V391.521H791.927V395.116ZM806.099 395.116H799.012V391.521H806.099V395.116ZM820.271 395.116H813.185V391.521H820.271V395.116ZM834.444 395.116H827.358V391.521H834.444V395.116ZM848.616 395.116H841.531V391.521H848.616V395.116ZM862.789 395.116H855.703V391.521H862.789V395.116ZM876.962 395.116H869.876V391.521H876.962V395.116ZM891.134 395.116H884.048V391.521H891.134V395.116ZM905.307 395.116H898.22V391.521H905.307V395.116ZM919.48 395.116H912.393V391.521H919.48V395.116ZM933.653 395.116H926.566V391.521H933.653V395.116ZM947.825 395.116H940.738V391.521H947.825V395.116ZM962.663 394.704C961.302 394.973 959.894 395.116 958.454 395.116H954.911V391.521H958.454C959.659 391.521 960.833 391.403 961.966 391.179L962.663 394.704ZM357.823 384.531C359.267 386.688 361.125 388.546 363.282 389.99L361.282 392.976C358.735 391.271 356.542 389.078 354.836 386.531L357.823 384.531ZM484.471 386.531C482.765 389.078 480.572 391.271 478.025 392.976L476.025 389.99C478.182 388.546 480.04 386.688 481.484 384.531L484.471 386.531ZM759.261 383.532C760.574 385.493 762.264 387.183 764.226 388.496L763.225 389.989L762.234 391.472L762.226 391.482C759.874 389.907 757.849 387.883 756.274 385.531L759.261 383.532ZM976.39 385.531C974.815 387.883 972.79 389.907 970.438 391.482L968.439 388.496C970.4 387.183 972.091 385.493 973.404 383.532L976.39 385.531ZM354.494 373.548C354.494 374.871 354.624 376.162 354.871 377.409L351.344 378.106C351.052 376.631 350.899 375.106 350.899 373.548V369.729H354.494V373.548ZM488.408 373.548C488.408 375.106 488.255 376.631 487.963 378.106L484.436 377.409C484.683 376.162 484.813 374.871 484.813 373.548V369.729H488.408V373.548ZM756.235 373.548C756.235 374.753 756.354 375.927 756.578 377.059L753.052 377.756C752.818 376.571 752.679 375.351 752.647 374.104L752.64 373.548V369.729H756.235V373.548ZM980.024 373.548C980.024 374.988 979.881 376.395 979.612 377.756L976.087 377.059C976.311 375.927 976.429 374.753 976.429 373.548V369.729H980.024V373.548ZM354.871 354.41C354.624 355.657 354.494 356.948 354.494 358.271V362.09H350.899V358.271C350.899 356.713 351.052 355.188 351.344 353.712L354.871 354.41ZM487.963 353.712C488.255 355.188 488.408 356.713 488.408 358.271V362.09H484.813V358.271C484.813 356.948 484.683 355.657 484.436 354.41L487.963 353.712ZM756.578 354.759C756.354 355.892 756.235 357.066 756.235 358.271V362.09H752.64V358.271C752.64 356.83 752.783 355.423 753.052 354.062L756.578 354.759ZM979.612 354.062C979.881 355.423 980.024 356.83 980.024 358.271V362.09H976.429V358.271C976.429 357.066 976.311 355.892 976.087 354.759L979.612 354.062ZM764.226 343.322C762.264 344.636 760.574 346.325 759.261 348.287L756.274 346.287C757.849 343.935 759.874 341.91 762.226 340.336L764.226 343.322ZM970.438 340.336C972.79 341.91 974.815 343.935 976.39 346.287L974.898 347.287L974.897 347.286L973.404 348.287C972.091 346.326 970.4 344.636 968.439 343.322L970.438 340.336ZM363.282 341.829C361.125 343.273 359.267 345.131 357.823 347.287L354.836 345.287C356.542 342.74 358.735 340.547 361.282 338.842L363.282 341.829ZM478.025 338.842C480.572 340.547 482.765 342.74 484.471 345.287L481.484 347.287C480.04 345.131 478.181 343.273 476.025 341.829L478.025 338.842ZM777.754 340.297H774.21C773.006 340.297 771.832 340.415 770.699 340.639L770.001 337.114C771.187 336.88 772.407 336.741 773.654 336.71L774.21 336.703H777.754V340.297ZM959.011 336.71C960.257 336.741 961.477 336.88 962.663 337.114L962.322 338.842L961.966 340.639C960.833 340.415 959.659 340.297 958.454 340.297H954.911V336.703H958.454L959.011 336.71ZM791.927 340.297H784.84V336.703H791.927V340.297ZM806.099 340.297H799.012V336.703H806.099V340.297ZM820.271 340.297H813.185V336.703H820.271V340.297ZM834.444 340.297H827.358V336.703H834.444V340.297ZM848.616 340.297H841.531V336.703H848.616V340.297ZM862.789 340.297H855.703V336.703H862.789V340.297ZM876.962 340.297H869.876V336.703H876.962V340.297ZM891.134 340.297H884.048V336.703H891.134V340.297ZM905.307 340.297H898.22V336.703H905.307V340.297ZM919.48 340.297H912.393V336.703H919.48V340.297ZM933.653 340.297H926.566V336.703H933.653V340.297ZM947.825 340.297H940.738V336.703H947.825V340.297ZM378.048 338.5H374.267C372.944 338.5 371.653 338.63 370.406 338.876L369.708 335.35C371.184 335.058 372.708 334.905 374.267 334.905H378.048V338.5ZM465.04 334.905C466.599 334.905 468.123 335.058 469.599 335.35L468.901 338.876C467.654 338.63 466.363 338.5 465.04 338.5H461.258V334.905H465.04ZM393.178 338.5H385.613V334.905H393.178V338.5ZM408.307 338.5H400.742V334.905H408.307V338.5ZM423.435 338.5H415.871V334.905H423.435V338.5ZM438.565 338.5H431V334.905H438.565V338.5ZM453.694 338.5H446.129V334.905H453.694V338.5ZM803.054 233.013C804.187 233.237 805.361 233.355 806.565 233.355H810.222V236.95H806.565C805.125 236.95 803.717 236.807 802.356 236.538L803.054 233.013ZM824.847 236.95H817.534V233.355H824.847V236.95ZM839.472 236.95H832.16V233.355H839.472V236.95ZM854.097 236.95H846.785V233.355H854.097V236.95ZM868.722 236.95H861.409V233.355H868.722V236.95ZM883.347 236.95H876.035V233.355H883.347V236.95ZM897.972 236.95H890.66V233.355H897.972V236.95ZM912.598 236.95H905.285V233.355H912.598V236.95ZM927.223 236.95H919.91V233.355H927.223V236.95ZM941.848 236.95H934.536V233.355H941.848V236.95ZM956.473 236.95H949.16V233.355H956.473V236.95ZM967.656 236.947L967.442 236.95H963.785V235.449L967.656 236.947ZM791.616 225.366C792.929 227.327 794.619 229.017 796.581 230.33L795.58 231.823L794.589 233.306L794.581 233.316C792.229 231.741 790.204 229.717 788.629 227.365L791.616 225.366ZM788.59 215.382C788.59 216.587 788.709 217.761 788.933 218.893L785.407 219.59C785.173 218.405 785.034 217.185 785.002 215.938L784.995 215.382V211.563H788.59V215.382ZM788.933 196.593C788.709 197.726 788.59 198.9 788.59 200.105V203.924H784.995V200.105C784.995 198.664 785.138 197.257 785.407 195.896L788.933 196.593ZM796.581 185.156C794.619 186.47 792.929 188.159 791.616 190.121L788.629 188.121C790.204 185.769 792.229 183.744 794.581 182.17L796.581 185.156ZM810.222 182.131H806.565C805.361 182.131 804.187 182.249 803.054 182.474L802.356 178.948C803.717 178.679 805.125 178.537 806.565 178.537H810.222V182.131ZM824.847 182.131H817.534V178.537H824.847V182.131ZM839.472 182.131H832.16V178.537H839.472V182.131ZM854.097 182.131H846.785V178.537H854.097V182.131ZM868.722 182.131H861.409V178.537H868.722V182.131Z" fill="#2BA9B0"/>
<path d="M486.749 886.95C498.661 886.95 508.319 896.607 508.319 908.518V924.432C508.318 936.343 498.661 946 486.749 946H448.688C436.775 946 427.118 936.343 427.118 924.432V908.518C427.118 896.607 436.775 886.95 448.688 886.95H486.749ZM629.466 886.95C641.378 886.95 651.036 896.607 651.036 908.518V924.432C651.035 936.343 641.378 946 629.466 946H549.574C537.662 946 528.004 936.343 528.004 924.432V908.518C528.004 896.607 537.662 886.95 549.574 886.95H629.466ZM704.235 788.38C715.986 786.426 727.096 794.368 729.05 806.118L731.662 821.817C733.615 833.567 725.672 844.676 713.921 846.63L535.592 876.278C523.84 878.232 512.73 870.29 510.776 858.539L508.166 842.842C506.212 831.091 514.154 819.982 525.906 818.028L704.235 788.38ZM507.664 729.484C519.577 729.484 529.235 739.14 529.235 751.052V766.965C529.235 778.877 519.577 788.533 507.665 788.534H448.688C436.775 788.533 427.118 778.877 427.118 766.965V751.052C427.118 739.14 436.775 729.484 448.688 729.484H507.664ZM629.466 729.484C641.378 729.484 651.036 739.14 651.036 751.052V766.965C651.035 778.877 641.378 788.533 629.466 788.534H570.49C558.577 788.534 548.92 778.877 548.92 766.965V751.052C548.92 739.14 558.577 729.484 570.49 729.484H629.466ZM464.603 572.017C476.516 572.017 486.173 581.674 486.173 593.585V609.499C486.173 621.411 476.516 631.067 464.603 631.067H448.688C436.775 631.067 427.118 621.411 427.118 609.499V593.585C427.118 581.674 436.775 572.017 448.688 572.017H464.603ZM629.466 572.017C641.378 572.017 651.036 581.674 651.036 593.585V609.499C651.036 621.411 641.378 631.067 629.466 631.067H527.428C515.516 631.067 505.859 621.411 505.858 609.499V593.585C505.859 581.674 515.516 572.017 527.428 572.017H629.466ZM367.089 481.62C371.081 470.397 383.416 464.534 394.64 468.525L480.346 499.001C491.57 502.992 497.433 515.325 493.442 526.548L488.11 541.542C484.118 552.765 471.784 558.628 460.559 554.637L374.852 524.162C363.628 520.171 357.765 507.837 361.757 496.614L367.089 481.62ZM629.466 493.284C641.378 493.285 651.035 502.94 651.036 514.852V530.766C651.035 542.678 641.378 552.334 629.466 552.334H591.405C579.492 552.334 569.835 542.678 569.835 530.766V514.852C569.835 502.941 579.492 493.284 591.405 493.284H629.466ZM629.466 414.551C641.378 414.551 651.035 424.207 651.036 436.119V452.032C651.036 463.944 641.378 473.6 629.466 473.601H448.688C436.775 473.6 427.118 463.944 427.118 452.032V436.119C427.118 424.207 436.775 414.551 448.688 414.551H629.466ZM312.044 335.818C323.957 335.818 333.614 345.474 333.614 357.386V373.3C333.614 385.211 323.957 394.868 312.044 394.868H143.57C131.657 394.868 122 385.211 122 373.3V357.386C122 345.474 131.657 335.818 143.57 335.818H312.044ZM711.897 335.818C723.809 335.818 733.467 345.475 733.467 357.386V373.3C733.467 385.211 723.809 394.867 711.897 394.868H528.659C516.746 394.868 507.089 385.211 507.089 373.3V357.386C507.089 345.474 516.746 335.818 528.659 335.818H711.897ZM385.863 257.084C397.776 257.084 407.433 266.741 407.433 278.652V294.566C407.433 306.478 397.776 316.134 385.863 316.134H241.995C230.083 316.134 220.425 306.478 220.425 294.566V278.652C220.426 266.741 230.083 257.084 241.995 257.084H385.863ZM629.466 257.084C641.378 257.084 651.035 266.741 651.036 278.652V294.566C651.036 306.478 641.378 316.134 629.466 316.134H448.688C436.775 316.134 427.118 306.478 427.118 294.566V278.652C427.118 266.741 436.775 257.084 448.688 257.084H629.466ZM801.71 257.084C813.622 257.084 823.279 266.741 823.28 278.652V294.566C823.28 306.478 813.622 316.134 801.71 316.134H692.29C680.378 316.134 670.72 306.478 670.72 294.566V278.652C670.721 266.741 680.378 257.084 692.29 257.084H801.71ZM909.977 257.084C921.89 257.084 931.547 266.741 931.547 278.652V294.566C931.547 306.478 921.89 316.134 909.977 316.134H864.534C852.622 316.134 842.964 306.478 842.964 294.566V278.652C842.965 266.741 852.622 257.084 864.534 257.084H909.977ZM879.868 162.79C884.168 151.681 896.659 146.161 907.769 150.459L1032.76 198.822C1043.87 203.121 1049.39 215.612 1045.09 226.721L1039.35 241.562C1035.05 252.671 1022.56 258.192 1011.45 253.893L886.457 205.529C875.347 201.23 869.826 188.74 874.125 177.631L879.868 162.79ZM330.499 178.351C342.411 178.352 352.069 188.008 352.069 199.92V215.833C352.069 227.745 342.411 237.401 330.499 237.401H162.025C150.112 237.401 140.455 227.745 140.455 215.833V199.92C140.455 188.008 150.112 178.351 162.025 178.351H330.499ZM532.271 178.351C544.183 178.352 553.841 188.008 553.841 199.92V215.833C553.841 227.745 544.183 237.401 532.271 237.401H393.324C381.412 237.401 371.754 227.745 371.754 215.833V199.92C371.754 188.008 381.412 178.351 393.324 178.351H532.271ZM743.885 178.351C755.798 178.352 765.455 188.008 765.455 199.92V215.833C765.455 227.745 755.798 237.401 743.885 237.401H595.095C583.183 237.401 573.525 227.745 573.525 215.833V199.92C573.526 188.008 583.183 178.352 595.095 178.351H743.885Z" fill="url(#paint0_linear_11_41)"/>
<path d="M486.749 944.203V946H448.688V944.203H486.749ZM629.466 944.203V946H549.574V944.203H629.466ZM649.238 924.432V908.518C649.238 897.599 640.386 888.748 629.466 888.748H549.574C538.654 888.748 529.802 897.599 529.802 908.518V924.432C529.802 935.351 538.654 944.203 549.574 944.203V946L549.018 945.993C537.547 945.703 528.302 936.458 528.011 924.988L528.004 924.432V908.518C528.004 896.793 537.362 887.252 549.018 886.957L549.574 886.95H629.466L630.022 886.957C641.678 887.252 651.036 896.793 651.036 908.518V924.432L651.029 924.988C650.738 936.458 641.492 945.702 630.022 945.993L629.466 946V944.203C640.385 944.203 649.238 935.351 649.238 924.432ZM506.521 924.432V908.518C506.521 897.77 497.943 889.024 487.259 888.754L486.749 888.748H448.688C437.768 888.748 428.915 897.599 428.915 908.518V924.432C428.916 935.351 437.768 944.202 448.688 944.203V946L448.131 945.993C436.661 945.702 427.416 936.458 427.125 924.988L427.118 924.432V908.518C427.118 896.793 436.476 887.253 448.131 886.957L448.688 886.95H486.749L487.305 886.957C498.961 887.252 508.319 896.793 508.319 908.518V924.432L508.312 924.988C508.021 936.458 498.776 945.702 487.305 945.993L486.749 946V944.203C497.668 944.203 506.521 935.351 506.521 924.432ZM704.235 788.38C715.986 786.426 727.096 794.368 729.05 806.118L731.662 821.817C733.615 833.567 725.672 844.676 713.921 846.63L535.592 876.278L535.042 876.363C523.679 877.957 513.042 870.354 510.874 859.087L510.776 858.539L508.166 842.842C506.243 831.275 513.909 820.329 525.358 818.126L525.906 818.028L704.235 788.38ZM727.278 806.413C725.486 795.642 715.302 788.362 704.53 790.153L526.201 819.801C515.429 821.592 508.148 831.776 509.939 842.547L512.549 858.245C514.34 869.016 524.525 876.296 535.297 874.506L713.626 844.857C724.398 843.066 731.679 832.883 729.889 822.112L727.278 806.413ZM507.665 786.736V788.534H448.688V786.736H507.665ZM629.466 786.736V788.534H570.49V786.736H629.466ZM649.238 766.965V751.052C649.238 740.133 640.386 731.281 629.466 731.281H570.49C559.57 731.281 550.717 740.133 550.717 751.052V766.965C550.717 777.884 559.57 786.736 570.49 786.736V788.534L569.933 788.527C558.462 788.236 549.217 778.991 548.927 767.522L548.92 766.965V751.052C548.92 739.326 558.278 729.786 569.933 729.491L570.49 729.484H629.466L630.022 729.491C641.678 729.786 651.036 739.326 651.036 751.052V766.965L651.029 767.522C650.738 778.991 641.493 788.236 630.022 788.527L629.466 788.534V786.736C640.385 786.736 649.238 777.884 649.238 766.965ZM527.437 766.965V751.052C527.437 740.303 518.858 731.558 508.174 731.287L507.664 731.281H448.688C437.768 731.281 428.915 740.133 428.915 751.052V766.965C428.916 777.884 437.768 786.736 448.688 786.736V788.534L448.131 788.527C436.661 788.236 427.415 778.991 427.125 767.522L427.118 766.965V751.052C427.118 739.326 436.476 729.786 448.131 729.491L448.688 729.484H507.664L508.22 729.491C519.876 729.786 529.235 739.326 529.235 751.052V766.965L529.228 767.522C528.937 778.991 519.692 788.236 508.221 788.527L507.665 788.534V786.736C518.584 786.736 527.437 777.884 527.437 766.965ZM464.603 629.27V631.067H448.688V629.27H464.603ZM629.466 629.27V631.067H527.428V629.27H629.466ZM649.238 609.499V593.585C649.238 582.666 640.386 573.815 629.466 573.815H527.428C516.509 573.815 507.656 582.666 507.656 593.585V609.499C507.656 620.418 516.509 629.27 527.428 629.27V631.067L526.872 631.06C515.401 630.77 506.156 621.525 505.866 610.055L505.858 609.499V593.585C505.859 581.86 515.216 572.319 526.872 572.024L527.428 572.017H629.466L630.022 572.024C641.678 572.319 651.036 581.86 651.036 593.585V609.499L651.029 610.055C650.738 621.525 641.493 630.769 630.022 631.06L629.466 631.067V629.27C640.386 629.27 649.238 620.418 649.238 609.499ZM484.375 609.499V593.585C484.375 582.837 475.797 574.091 465.113 573.821L464.603 573.815H448.688C437.768 573.815 428.915 582.666 428.915 593.585V609.499C428.915 620.418 437.768 629.269 448.688 629.27V631.067L448.131 631.06C436.661 630.769 427.415 621.525 427.125 610.055L427.118 609.499V593.585C427.118 581.86 436.476 572.32 448.131 572.024L448.688 572.017H464.603L465.159 572.024C476.815 572.319 486.173 581.86 486.173 593.585V609.499L486.166 610.055C485.875 621.525 476.63 630.769 465.159 631.06L464.603 631.067V629.27C475.523 629.27 484.375 620.418 484.375 609.499ZM367.089 481.62C371.081 470.397 383.416 464.534 394.64 468.525L480.346 499.001C491.57 502.992 497.433 515.325 493.442 526.548L488.11 541.542L487.917 542.064C483.8 552.774 471.991 558.386 461.086 554.817L460.559 554.637L374.852 524.162C363.804 520.233 357.95 508.22 361.577 497.141L361.757 496.614L367.089 481.62ZM394.038 470.218C383.749 466.56 372.442 471.934 368.783 482.222L363.45 497.216C359.792 507.504 365.166 518.81 375.455 522.468L461.161 552.943C471.45 556.602 482.757 551.228 486.416 540.94L491.748 525.946C495.406 515.659 490.032 504.353 479.744 500.694L394.038 470.218ZM629.466 550.537V552.334H591.405V550.537H629.466ZM649.238 530.766V514.852C649.238 503.933 640.385 495.082 629.466 495.082H591.405C580.485 495.082 571.632 503.933 571.632 514.852V530.766C571.633 541.685 580.485 550.537 591.405 550.537V552.334L590.848 552.327C579.378 552.037 570.133 542.792 569.842 531.323L569.835 530.766V514.852C569.835 503.127 579.193 493.587 590.848 493.291L591.405 493.284H629.466L630.022 493.291C641.677 493.587 651.035 503.126 651.036 514.852V530.766L651.029 531.323C650.738 542.792 641.492 552.037 630.022 552.327L629.466 552.334V550.537C640.385 550.537 649.238 541.685 649.238 530.766ZM629.466 471.803V473.601H448.688V471.803H629.466ZM649.238 452.032V436.119C649.238 425.2 640.385 416.348 629.466 416.348H448.688C437.768 416.348 428.915 425.2 428.915 436.119V452.032C428.915 462.951 437.768 471.803 448.688 471.803V473.601L448.131 473.594C436.661 473.303 427.415 464.058 427.125 452.589L427.118 452.032V436.119C427.118 424.393 436.476 414.853 448.131 414.558L448.688 414.551H629.466L630.022 414.558C641.677 414.853 651.035 424.393 651.036 436.119V452.032L651.029 452.589C650.738 464.058 641.493 473.303 630.022 473.594L629.466 473.601V471.803C640.386 471.803 649.238 462.951 649.238 452.032ZM312.044 393.07V394.868H143.57V393.07H312.044ZM711.897 393.07V394.868H528.659V393.07H711.897ZM731.669 373.3V357.386C731.669 346.638 723.091 337.892 712.407 337.621L711.897 337.615H528.659C517.739 337.615 508.887 346.467 508.886 357.386V373.3C508.887 384.219 517.739 393.07 528.659 393.07V394.868L528.103 394.861C516.632 394.57 507.387 385.326 507.096 373.856L507.089 373.3V357.386C507.089 345.66 516.447 336.12 528.103 335.825L528.659 335.818H711.897L712.453 335.825C724.109 336.12 733.467 345.661 733.467 357.386V373.3L733.46 373.856C733.169 385.325 723.924 394.57 712.453 394.861L711.897 394.868V393.07C722.817 393.07 731.669 384.218 731.669 373.3ZM331.817 373.3V357.386C331.817 346.638 323.239 337.892 312.554 337.621L312.044 337.615H143.57C132.65 337.615 123.798 346.467 123.798 357.386V373.3C123.798 384.219 132.65 393.07 143.57 393.07V394.868L143.014 394.861C131.543 394.57 122.298 385.326 122.007 373.856L122 373.3V357.386C122 345.66 131.358 336.12 143.014 335.825L143.57 335.818H312.044L312.601 335.825C324.256 336.12 333.614 345.661 333.614 357.386V373.3L333.607 373.856C333.317 385.325 324.071 394.57 312.601 394.861L312.044 394.868V393.07C322.964 393.07 331.817 384.218 331.817 373.3ZM385.863 314.337V316.134H241.995V314.337H385.863ZM629.466 314.337V316.134H448.688V314.337H629.466ZM801.71 314.337V316.134H692.29V314.337H801.71ZM909.977 314.337V316.134H864.534V314.337H909.977ZM929.75 294.566V278.652C929.75 267.733 920.897 258.882 909.977 258.882H864.534C853.615 258.882 844.762 267.733 844.762 278.652V294.566C844.762 305.485 853.615 314.337 864.534 314.337V316.134L863.978 316.127C852.507 315.836 843.262 306.592 842.971 295.122L842.964 294.566V278.652C842.965 266.927 852.323 257.387 863.978 257.091L864.534 257.084H909.977L910.534 257.091C922.189 257.387 931.547 266.927 931.547 278.652V294.566L931.54 295.122C931.25 306.592 922.004 315.836 910.534 316.127L909.977 316.134V314.337C920.897 314.337 929.75 305.485 929.75 294.566ZM821.482 294.566V278.652C821.482 267.733 812.629 258.882 801.71 258.882H692.29C681.371 258.882 672.518 267.733 672.518 278.652V294.566C672.518 305.485 681.37 314.337 692.29 314.337V316.134L691.734 316.127C680.263 315.836 671.018 306.592 670.727 295.122L670.72 294.566V278.652C670.721 266.927 680.079 257.387 691.734 257.091L692.29 257.084H801.71L802.266 257.091C813.922 257.386 823.279 266.927 823.28 278.652V294.566L823.273 295.122C822.982 306.592 813.737 315.837 802.266 316.127L801.71 316.134V314.337C812.63 314.337 821.482 305.485 821.482 294.566ZM649.238 294.566V278.652C649.238 267.733 640.385 258.882 629.466 258.882H448.688C437.768 258.882 428.916 267.734 428.915 278.652V294.566C428.915 305.485 437.768 314.337 448.688 314.337V316.134L448.131 316.127C436.661 315.836 427.415 306.592 427.125 295.122L427.118 294.566V278.652C427.118 266.927 436.476 257.387 448.131 257.091L448.688 257.084H629.466L630.022 257.091C641.677 257.387 651.035 266.927 651.036 278.652V294.566L651.029 295.122C650.738 306.592 641.493 315.836 630.022 316.127L629.466 316.134V314.337C640.386 314.337 649.238 305.485 649.238 294.566ZM405.636 294.566V278.652C405.635 267.904 397.057 259.158 386.373 258.888L385.863 258.882H241.995C231.076 258.882 222.223 267.733 222.223 278.652V294.566C222.223 305.485 231.075 314.337 241.995 314.337V316.134L241.439 316.127C229.968 315.837 220.723 306.592 220.432 295.122L220.425 294.566V278.652C220.426 266.927 229.784 257.386 241.439 257.091L241.995 257.084H385.863L386.42 257.091C398.075 257.386 407.433 266.927 407.433 278.652V294.566L407.426 295.122C407.135 306.592 397.89 315.837 386.42 316.127L385.863 316.134V314.337C396.783 314.337 405.635 305.485 405.636 294.566ZM879.868 162.79C884.168 151.681 896.659 146.161 907.769 150.459L1032.76 198.822C1043.87 203.121 1049.39 215.612 1045.09 226.721L1039.35 241.562L1039.14 242.078C1034.73 252.67 1022.77 257.956 1011.97 254.087L1011.45 253.893L886.457 205.529C875.521 201.298 870 189.128 873.931 178.152L874.125 177.631L879.868 162.79ZM907.121 152.136C896.937 148.195 885.486 153.255 881.545 163.438L875.801 178.279C871.86 188.463 876.922 199.912 887.106 203.853L1012.1 252.217C1022.28 256.157 1033.73 251.096 1037.67 240.913L1043.42 226.072C1047.36 215.889 1042.3 204.439 1032.11 200.499L907.121 152.136ZM330.499 235.604V237.401H162.025V235.604H330.499ZM532.271 235.604V237.401H393.324V235.604H532.271ZM743.885 235.604V237.401H595.095V235.604H743.885ZM763.658 215.833V199.92C763.658 189.171 755.079 180.426 744.395 180.155L743.885 180.149H595.095C584.176 180.149 575.323 189.001 575.323 199.92V215.833C575.323 226.752 584.176 235.604 595.095 235.604V237.401L594.539 237.394C583.068 237.104 573.823 227.859 573.532 216.39L573.525 215.833V199.92C573.526 188.194 582.884 178.654 594.539 178.358L595.095 178.351H743.885L744.442 178.358C756.097 178.654 765.455 188.194 765.455 199.92V215.833L765.448 216.39C765.158 227.859 755.912 237.104 744.442 237.394L743.885 237.401V235.604C754.805 235.604 763.657 226.752 763.658 215.833ZM552.043 215.833V199.92C552.043 189.171 543.465 180.425 532.781 180.155L532.271 180.149H393.324C382.404 180.149 373.552 189 373.552 199.92V215.833C373.552 226.752 382.404 235.604 393.324 235.604V237.401L392.768 237.394C381.297 237.104 372.052 227.859 371.761 216.39L371.754 215.833V199.92C371.754 188.194 381.112 178.654 392.768 178.358L393.324 178.351H532.271L532.827 178.358C544.483 178.654 553.841 188.194 553.841 199.92V215.833L553.834 216.39C553.543 227.859 544.298 237.104 532.827 237.394L532.271 237.401V235.604C543.191 235.604 552.043 226.752 552.043 215.833ZM350.271 215.833V199.92C350.271 189.171 341.693 180.425 331.009 180.155L330.499 180.149H162.025C151.105 180.149 142.253 189 142.253 199.92V215.833C142.253 226.752 151.105 235.604 162.025 235.604V237.401L161.469 237.394C149.998 237.104 140.753 227.859 140.462 216.39L140.455 215.833V199.92C140.455 188.194 149.813 178.654 161.469 178.358L162.025 178.351H330.499L331.055 178.358C342.711 178.654 352.069 188.194 352.069 199.92V215.833L352.062 216.39C351.771 227.859 342.526 237.104 331.055 237.394L330.499 237.401V235.604C341.419 235.604 350.271 226.752 350.271 215.833Z" fill="url(#paint1_linear_11_41)"/>
<path d="M731.587 793.107C730.958 794.107 730.3 795.093 729.613 796.063C729.039 796.873 727.917 797.064 727.107 796.49C726.297 795.917 726.105 794.795 726.679 793.985C727.328 793.069 727.949 792.138 728.543 791.194L731.587 793.107ZM737.783 780.369C736.984 782.589 736.066 784.772 735.029 786.905L731.796 785.333C732.776 783.317 733.644 781.254 734.4 779.152L737.783 780.369ZM741.164 766.628C740.837 768.969 740.392 771.291 739.829 773.584L736.337 772.727C736.871 770.554 737.293 768.351 737.604 766.13L741.164 766.628ZM741.737 752.506C741.871 754.866 741.891 757.227 741.796 759.577L738.205 759.433C738.294 757.199 738.276 754.955 738.149 752.708L741.737 752.506ZM739.614 738.544C740.187 740.838 740.649 743.15 741.003 745.471L737.449 746.012C737.112 743.802 736.671 741.6 736.126 739.413L739.614 738.544ZM734.953 725.218C735.936 727.371 736.814 729.559 737.589 731.771L734.196 732.959C733.457 730.849 732.62 728.764 731.683 726.711L734.953 725.218ZM727.946 712.963C729.306 714.907 730.567 716.899 731.729 718.932L728.608 720.716C727.5 718.778 726.297 716.878 725.001 715.024L727.946 712.963ZM718.849 702.178C720.539 703.85 722.138 705.583 723.644 707.368L720.896 709.686C719.459 707.983 717.933 706.329 716.321 704.734L718.849 702.178ZM707.99 693.187C709.948 694.538 711.822 695.958 713.614 697.44L711.322 700.21C709.611 698.794 707.819 697.437 705.948 696.146L707.99 693.187ZM695.749 686.189C697.912 687.198 700.002 688.281 702.018 689.432L700.235 692.554C698.306 691.452 696.304 690.414 694.23 689.447L695.749 686.189ZM682.583 681.261C684.871 681.924 687.095 682.662 689.255 683.469L687.997 686.836C685.922 686.061 683.783 685.352 681.582 684.714L682.583 681.261ZM668.861 678.314C671.218 678.655 673.522 679.069 675.771 679.55L675.018 683.065C672.849 682.601 670.625 682.202 668.346 681.872L668.861 678.314ZM658.362 677.301C659.55 677.361 660.727 677.438 661.892 677.532L661.602 681.115C660.474 681.024 659.333 680.948 658.181 680.89C657.19 680.84 656.427 679.996 656.476 679.005C656.527 678.014 657.37 677.251 658.362 677.301Z" fill="#2BA9B0"/>
<path d="M990.17 367.967C988.909 368.054 987.642 368.117 986.369 368.155C985.377 368.184 984.548 367.404 984.519 366.412C984.489 365.42 985.269 364.591 986.262 364.562C987.488 364.525 988.709 364.465 989.922 364.381L990.17 367.967ZM1005.18 365.731C1002.73 366.298 1000.24 366.772 997.714 367.147L997.185 363.591C999.616 363.23 1002.01 362.775 1004.37 362.229L1005.18 365.731ZM1019.65 361.122C1017.32 362.079 1014.94 362.948 1012.51 363.721L1011.42 360.296C1013.76 359.552 1016.04 358.718 1018.28 357.798L1019.65 361.122ZM1033.17 354.168C1031.03 355.51 1028.83 356.767 1026.56 357.933L1024.91 354.736C1027.09 353.617 1029.21 352.412 1031.25 351.126L1033.17 354.168ZM1045.27 344.95C1043.41 346.66 1041.46 348.292 1039.42 349.838L1037.25 346.976C1039.19 345.496 1041.06 343.936 1042.84 342.302L1045.27 344.95ZM1055.44 333.608C1053.95 335.656 1052.34 337.634 1050.63 339.534L1047.96 337.132C1049.59 335.32 1051.12 333.436 1052.54 331.486L1055.44 333.608ZM1063.11 320.412C1062.07 322.743 1060.91 325.013 1059.63 327.217L1056.52 325.409C1057.74 323.316 1058.84 321.161 1059.83 318.951L1063.11 320.412ZM1067.73 305.848C1067.23 308.368 1066.6 310.841 1065.83 313.26L1062.4 312.173C1063.13 309.882 1063.73 307.54 1064.2 305.155L1067.73 305.848ZM1068.97 290.616C1069.05 293.201 1068.98 295.754 1068.78 298.269L1065.19 297.979C1065.39 295.597 1065.45 293.177 1065.38 290.724L1068.97 290.616ZM1066.91 275.513C1067.52 278.033 1067.99 280.535 1068.33 283.014L1064.77 283.503C1064.45 281.147 1063.99 278.764 1063.41 276.36L1066.91 275.513ZM1061.97 261.126C1063.02 263.488 1063.95 265.842 1064.75 268.183L1061.36 269.355C1060.58 267.114 1059.69 264.858 1058.68 262.588L1061.97 261.126ZM1054.74 247.808C1056.14 249.984 1057.43 252.158 1058.6 254.327L1055.45 256.045C1054.31 253.953 1053.07 251.854 1051.72 249.749L1054.74 247.808ZM1045.61 238.233C1046.39 237.619 1047.52 237.754 1048.13 238.535C1048.93 239.549 1049.7 240.563 1050.45 241.577L1047.56 243.712C1046.83 242.727 1046.08 241.742 1045.31 240.757C1044.69 239.976 1044.83 238.846 1045.61 238.233Z" fill="#2BA9B0"/>
<path d="M357.128 478.434C357.864 479.32 358.629 480.203 359.423 481.082C360.088 481.818 360.03 482.955 359.294 483.621C358.557 484.286 357.42 484.228 356.755 483.492C355.928 482.577 355.131 481.656 354.362 480.732L357.128 478.434ZM349.209 466.958C350.315 468.936 351.543 470.909 352.899 472.87L349.942 474.915C348.522 472.861 347.234 470.79 346.071 468.71L349.209 466.958ZM343.726 454.206C344.394 456.374 345.193 458.548 346.129 460.721L342.828 462.144C341.84 459.853 340.997 457.557 340.291 455.264L343.726 454.206ZM341.165 440.598C341.328 442.87 341.622 445.165 342.058 447.475L338.525 448.141C338.064 445.695 337.751 443.263 337.579 440.855L341.165 440.598ZM341.784 426.773C341.418 429.027 341.177 431.329 341.072 433.665L337.481 433.505C337.592 431.027 337.847 428.588 338.235 426.197L341.784 426.773ZM345.575 413.464C344.697 415.574 343.932 417.759 343.292 420.006L339.834 419.023C340.512 416.639 341.324 414.322 342.255 412.083L345.575 413.464ZM352.365 401.428C351.014 403.258 349.757 405.198 348.609 407.235L345.476 405.471C346.696 403.307 348.033 401.242 349.473 399.292L352.365 401.428ZM356.885 391.086C357.621 390.421 358.758 390.479 359.423 391.216C360.088 391.952 360.03 393.089 359.293 393.754C358.448 394.516 357.623 395.315 356.82 396.149L354.231 393.654C355.092 392.762 355.977 391.905 356.885 391.086Z" fill="#2BA9B0"/>
<defs>
<linearGradient id="paint0_linear_11_41" x1="106.528" y1="470.647" x2="778.002" y2="926.563" gradientUnits="userSpaceOnUse">
<stop stop-color="#00E2FD"/>
<stop offset="1" stop-color="#050E22" stop-opacity="0"/>
</linearGradient>
<linearGradient id="paint1_linear_11_41" x1="122" y1="547.477" x2="1047.07" y2="547.477" gradientUnits="userSpaceOnUse">
<stop stop-color="#02F3FF"/>
<stop offset="1" stop-color="#019299"/>
</linearGradient>
</defs>
</svg>
